<svg width="178" height="52" xmlns="http://www.w3.org/2000/svg" xmlns:xlink="http://www.w3.org/1999/xlink" xml:space="preserve" overflow="hidden"><defs><clipPath id="clip0"><rect x="394" y="288" width="178" height="52"/></clipPath></defs><g clip-path="url(#clip0)" transform="translate(-394 -288)"><path d="M33.7707 58.6937C33.7707 58.4993 33.7815 58.3086 33.7995 58.1178 33.7851 58.3122 33.7743 58.5029 33.7707 58.6937Z" fill="#212121" transform="matrix(1.00155 0 0 1 378.046 272.346)"/><path d="M49.5509 21.0212C49.6013 21.1508 49.6409 21.2803 49.6877 21.4099 49.6445 21.2803 49.6013 21.1508 49.5509 21.0212Z" fill="#212121" transform="matrix(1.00155 0 0 1 378.046 272.346)"/><path d="M49.2018 20.2653C49.2918 20.4381 49.371 20.618 49.4502 20.798 49.3746 20.618 49.2954 20.4417 49.2018 20.2653Z" fill="#212121" transform="matrix(1.00155 0 0 1 378.046 272.346)"/><path d="M34.8361 54.7738C34.8793 54.7019 34.9225 54.6263 34.9657 54.5543 34.9225 54.6263 34.8793 54.6983 34.8361 54.7738Z" fill="#212121" transform="matrix(1.00155 0 0 1 378.046 272.346)"/><path d="M34.595 55.2274C34.6094 55.1986 34.6201 55.1698 34.6345 55.141 34.6201 55.1698 34.6094 55.1986 34.595 55.2274Z" fill="#212121" transform="matrix(1.00155 0 0 1 378.046 272.346)"/><path d="M36.8159 52.4342 30.9126 46.531C33.2991 43.5685 33.3171 39.3499 30.9594 36.3659L36.877 30.4483C36.9634 30.5167 37.0534 30.5743 37.1398 30.6391 36.8087 30.3943 36.4883 30.1352 36.1859 29.8328 32.9932 26.64 32.9932 21.4675 36.1859 18.2747 39.3787 15.082 44.5512 15.082 47.744 18.2747 48.3307 18.8615 48.8094 19.5202 49.1802 20.2149 48.9462 19.7757 48.6763 19.3474 48.3559 18.9407 45.5483 15.4023 40.4046 14.8084 36.8626 17.616 33.3243 20.4237 32.7304 25.5674 35.538 29.1093L29.6276 35.0197C29.858 35.2069 30.0848 35.4048 30.3007 35.6172 33.5007 38.8172 33.5007 44.0041 30.3007 47.2041 30.0668 47.438 29.822 47.6468 29.57 47.8484L35.4948 53.7732C35.4228 53.8632 35.3581 53.9604 35.2897 54.0539 35.5488 53.6904 35.8332 53.3412 36.1607 53.0137 36.3731 52.8013 36.5927 52.6069 36.8195 52.4234Z" fill="#212121" transform="matrix(1.00155 0 0 1 378.046 272.346)"/><path d="M50.0009 22.605C50.0045 22.6302 50.0081 22.6554 50.0117 22.677 50.0081 22.6518 50.0045 22.6266 50.0009 22.605Z" fill="#212121" transform="matrix(1.00155 0 0 1 378.046 272.346)"/><path d="M49.8173 21.8023C49.8389 21.8815 49.8569 21.9606 49.8749 22.0398 49.8533 21.9606 49.8389 21.8815 49.8173 21.8023Z" fill="#212121" transform="matrix(1.00155 0 0 1 378.046 272.346)"/><path d="M34.1666 56.2856C34.2062 56.1633 34.2494 56.0445 34.2926 55.9221 34.2458 56.0409 34.2062 56.1633 34.1666 56.2856Z" fill="#212121" transform="matrix(1.00155 0 0 1 378.046 272.346)"/><path d="M33.8822 60.1407C33.8607 60.0147 33.8427 59.8888 33.8283 59.7628 33.8427 59.8888 33.8607 60.0147 33.8822 60.1407Z" fill="#212121" transform="matrix(1.00155 0 0 1 378.046 272.346)"/><path d="M33.7959 59.428C33.7815 59.2552 33.7743 59.0825 33.7707 58.9133 33.7707 59.0861 33.7815 59.2588 33.7959 59.428Z" fill="#212121" transform="matrix(1.00155 0 0 1 378.046 272.346)"/><path d="M34.0298 60.8354C34.0118 60.7706 33.9974 60.7058 33.983 60.6411 33.9974 60.7058 34.0154 60.7706 34.0298 60.8354Z" fill="#212121" transform="matrix(1.00155 0 0 1 378.046 272.346)"/><path d="M33.8139 57.927C33.8355 57.7398 33.8607 57.5563 33.893 57.3727 33.8607 57.5563 33.8319 57.7434 33.8139 57.927Z" fill="#212121" transform="matrix(1.00155 0 0 1 378.046 272.346)"/><path d="M34.2386 61.5193C34.2386 61.5193 34.2314 61.4977 34.2278 61.4869 34.2314 61.4977 34.235 61.5085 34.2386 61.5193Z" fill="#212121" transform="matrix(1.00155 0 0 1 378.046 272.346)"/><path d="M33.9434 57.1207C33.9758 56.9623 34.0154 56.8076 34.0586 56.6492 34.0154 56.804 33.9758 56.9623 33.9434 57.1207Z" fill="#212121" transform="matrix(1.00155 0 0 1 378.046 272.346)"/><path d="M30.3007 35.628C30.0848 35.412 29.8616 35.2141 29.6276 35.0305 26.4097 32.446 21.6979 32.644 18.7103 35.628 15.5103 38.828 15.5103 44.0149 18.7103 47.2149 21.6763 50.1809 26.3521 50.3932 29.5664 47.8592 29.8184 47.6612 30.0668 47.4488 30.2971 47.2149 33.4971 44.0149 33.4971 38.828 30.2971 35.628Z" fill="#EE751B" transform="matrix(1.00155 0 0 1 378.046 272.346)"/><path d="M36.8159 52.4342C36.5891 52.6177 36.3695 52.8121 36.1571 53.0245 35.8296 53.352 35.5452 53.7012 35.2861 54.0647 35.1709 54.2267 35.0629 54.3887 34.9621 54.5543 34.9189 54.6263 34.8757 54.6983 34.8325 54.7738 34.7641 54.8962 34.6957 55.0186 34.6309 55.141 34.6166 55.1698 34.6058 55.1986 34.5914 55.2274 34.4798 55.4578 34.379 55.6881 34.289 55.9257 34.2422 56.0445 34.2026 56.1669 34.163 56.2892 34.1234 56.408 34.0874 56.5304 34.055 56.6528 34.0118 56.8076 33.9722 56.9659 33.9398 57.1243 33.9218 57.2071 33.9074 57.2935 33.893 57.3763 33.8607 57.5599 33.8319 57.747 33.8139 57.9306 33.8067 57.9954 33.7995 58.0566 33.7959 58.1214 33.7815 58.3122 33.7707 58.5065 33.7671 58.6973 33.7671 58.7693 33.7671 58.8449 33.7671 58.9169 33.7671 59.0897 33.7779 59.2624 33.7923 59.4316 33.7995 59.5432 33.8139 59.6548 33.8247 59.7664 33.8391 59.8924 33.8571 60.0183 33.8787 60.1443 33.9074 60.3135 33.9398 60.4791 33.9794 60.6447 33.9938 60.7094 34.0118 60.7742 34.0262 60.839 34.0838 61.0586 34.1486 61.2746 34.2242 61.4905 34.2278 61.5013 34.2314 61.5121 34.235 61.5229 34.6273 62.6388 35.2609 63.6898 36.1535 64.5825 39.3463 67.7753 44.5188 67.7753 47.708 64.5825 50.9008 61.3898 50.9008 56.2172 47.708 53.0281 44.7276 50.0477 40.0194 49.8533 36.8123 52.4378Z" fill="#17428D" transform="matrix(1.00155 0 0 1 378.046 272.346)"/><path d="M36.1859 18.2819C32.9932 21.4747 32.9932 26.6472 36.1859 29.84 36.4847 30.1388 36.8087 30.4015 37.1398 30.6463 40.3362 32.9968 44.8536 32.734 47.744 29.84 49.6913 27.8927 50.4436 25.2038 50.0153 22.6806 50.0117 22.6554 50.0081 22.6302 50.0045 22.6086 49.9721 22.4178 49.9253 22.2306 49.8785 22.0434 49.8569 21.9642 49.8425 21.8851 49.8209 21.8059 49.7813 21.6727 49.7345 21.5431 49.6913 21.4135 49.6481 21.2839 49.6049 21.1544 49.5545 21.0248 49.5257 20.9492 49.4861 20.8772 49.4538 20.8016 49.3746 20.6216 49.299 20.4417 49.2054 20.2689 49.1982 20.2545 49.1874 20.2401 49.1802 20.2257 48.8094 19.5274 48.3307 18.8723 47.744 18.2855 44.5512 15.0928 39.3787 15.0928 36.1859 18.2855Z" fill="#9B9A9A" transform="matrix(1.00155 0 0 1 378.046 272.346)"/><path d="M66.915 42.5787 56.48 42.5787C56.7572 44.6916 57.8874 45.5483 59.6944 45.5483 61.2242 45.5483 62.1133 44.904 62.5704 43.8025L66.7314 45.1811C65.8424 47.8124 62.9051 49.2198 59.6944 49.2198 54.6155 49.2198 51.4335 46.3114 51.4335 41.2649 51.4335 36.2183 54.7091 33.3099 59.4496 33.3099 64.1902 33.3099 67.0374 36.3407 67.0374 40.563 67.0374 41.3296 66.9762 42.0927 66.915 42.5823ZM56.5124 39.7927 62.0809 39.7927C61.8973 37.9569 61.0406 36.9454 59.4496 36.9454 57.8586 36.9454 56.8184 37.8345 56.5124 39.7927Z" fill="#212121" transform="matrix(1.00155 0 0 1 378.046 272.346)"/><path d="M83.7427 38.7236 83.7427 48.9138 78.5415 48.9138 78.5415 40.1022C78.5415 37.9893 77.6524 37.2874 76.3673 37.2874 74.8663 37.2874 73.6137 38.2665 73.6137 40.8077L73.6137 48.9174 68.4124 48.9174 68.4124 33.6195 73.063 33.6195 73.2142 36.7115C74.132 34.4762 76.0002 33.3135 78.4479 33.3135 81.601 33.3135 83.7427 35.1817 83.7427 38.7308Z" fill="#212121" transform="matrix(1.00155 0 0 1 378.046 272.346)"/><path d="M85.8521 33.6123 90.5026 33.6123 90.6538 36.5819C91.6329 34.4402 93.4687 33.3063 95.7939 33.3063 98.1192 33.3063 99.8326 34.3466 100.628 36.3371 101.578 34.3466 103.565 33.3063 105.768 33.3063 108.767 33.3063 111.031 35.1421 111.002 38.7236L110.941 48.9138 105.801 48.9138 105.801 39.9186C105.801 37.9929 104.973 37.2874 103.72 37.2874 102.161 37.2874 101.028 38.45 101.028 40.7465L101.028 48.9174 95.8263 48.9174 95.8263 39.9222C95.8263 37.9965 94.9696 37.291 93.7458 37.291 92.306 37.291 91.0534 38.3312 91.0534 40.8401L91.0534 48.9174 85.8521 48.9174 85.8521 33.6195Z" fill="#212121" transform="matrix(1.00155 0 0 1 378.046 272.346)"/><path d="M127.801 42.5787 117.366 42.5787C117.639 44.6916 118.773 45.5483 120.58 45.5483 122.11 45.5483 122.995 44.904 123.456 43.8025L127.617 45.1811C126.732 47.8124 123.791 49.2198 120.58 49.2198 115.501 49.2198 112.319 46.3114 112.319 41.2649 112.319 36.2183 115.595 33.3099 120.335 33.3099 125.076 33.3099 127.923 36.3407 127.923 40.563 127.923 41.3296 127.862 42.0927 127.801 42.5823ZM117.398 39.7927 122.967 39.7927C122.783 37.9569 121.926 36.9454 120.335 36.9454 118.744 36.9454 117.704 37.8345 117.398 39.7927Z" fill="#212121" transform="matrix(1.00155 0 0 1 378.046 272.346)"/><path d="M128.197 46.3114 130.644 43.4354C131.652 44.7528 133.43 45.7319 135.511 45.7319 136.767 45.7319 137.685 45.3647 137.685 44.598 137.685 44.0473 137.379 43.7089 136.155 43.4642L134.014 43.0358C130.159 42.2403 128.719 40.7717 128.719 38.2917 128.719 35.8116 130.983 33.3027 135.911 33.3027 139.031 33.3027 141.418 34.253 142.825 35.934L140.345 38.7488C139.366 37.525 137.653 36.7907 136.123 36.7907 134.593 36.7907 133.888 37.219 133.888 37.9245 133.888 38.4752 134.316 38.8424 135.695 39.1195L138.481 39.6703C141.634 40.2498 142.919 41.812 142.919 43.9537 142.919 46.9233 140.532 49.2162 135.727 49.2162 132.667 49.2162 129.943 48.2047 128.2 46.3078Z" fill="#212121" transform="matrix(1.00155 0 0 1 378.046 272.346)"/><path d="M144.074 27.126 149.276 27.126 149.276 36.3983C150.193 34.3466 151.907 33.3063 154.11 33.3063 157.263 33.3063 159.405 35.1745 159.405 38.7236L159.405 48.9138 154.203 48.9138 154.203 40.1634C154.203 37.9893 153.318 37.255 152.029 37.255 150.528 37.255 149.276 38.2953 149.276 40.8653L149.276 48.9138 144.074 48.9138 144.074 27.1296Z" fill="#212121" transform="matrix(1.00155 0 0 1 378.046 272.346)"/><path d="M176.2 42.5787 165.765 42.5787C166.042 44.6916 167.172 45.5483 168.979 45.5483 170.509 45.5483 171.398 44.904 171.855 43.8025L176.016 45.1811C175.131 47.8124 172.19 49.2198 168.979 49.2198 163.9 49.2198 160.718 46.3114 160.718 41.2649 160.718 36.2183 163.994 33.3099 168.735 33.3099 173.475 33.3099 176.322 36.3407 176.322 40.563 176.322 41.3296 176.261 42.0927 176.2 42.5823ZM165.797 39.7927 171.366 39.7927C171.182 37.9569 170.326 36.9454 168.735 36.9454 167.144 36.9454 166.103 37.8345 165.797 39.7927Z" fill="#212121" transform="matrix(1.00155 0 0 1 378.046 272.346)"/><path d="M193.154 27.126 193.154 48.9102 188.503 48.9102 188.32 45.9118C187.463 47.9636 185.656 49.2162 183.331 49.2162 179.537 49.2162 177.028 46.3078 177.028 41.3224 177.028 36.3371 179.659 33.3063 183.453 33.3063 185.627 33.3063 187.157 34.469 187.952 36.2147L187.952 27.126 193.154 27.126ZM187.952 41.1713C187.952 38.6012 186.912 37.1326 185.166 37.1326 183.421 37.1326 182.258 38.4176 182.258 41.2649 182.258 44.1121 183.327 45.3971 185.134 45.3971 186.941 45.3971 187.949 43.9285 187.949 41.1749Z" fill="#212121" transform="matrix(1.00155 0 0 1 378.046 272.346)"/></g></svg>