<svg width="180" height="52" xmlns="http://www.w3.org/2000/svg" xmlns:xlink="http://www.w3.org/1999/xlink" xml:space="preserve" overflow="hidden"><defs><clipPath id="clip0"><rect x="366" y="261" width="180" height="52"/></clipPath></defs><g clip-path="url(#clip0)" transform="translate(-366 -261)"><path d="M33.7966 57.8974C33.8182 57.7103 33.8433 57.5268 33.8757 57.3434 33.8433 57.5268 33.8146 57.7139 33.7966 57.8974Z" fill="#FFFFFF" transform="matrix(1.0089 0 0 1 349.682 244.834)"/><path d="M49.9753 22.5934C49.9789 22.6186 49.9825 22.6438 49.9861 22.669 49.9825 22.6438 49.9789 22.6186 49.9753 22.5934Z" fill="#FFFFFF" transform="matrix(1.0089 0 0 1 349.682 244.834)"/><path d="M33.7534 58.6637C33.7534 58.4694 33.7642 58.2788 33.7822 58.0881 33.7678 58.2824 33.757 58.473 33.7534 58.6637Z" fill="#FFFFFF" transform="matrix(1.0089 0 0 1 349.682 244.834)"/><path d="M34.1491 56.2569C34.1887 56.1345 34.2319 56.0158 34.2751 55.8935 34.2283 56.0122 34.1887 56.1345 34.1491 56.2569Z" fill="#FFFFFF" transform="matrix(1.0089 0 0 1 349.682 244.834)"/><path d="M33.9261 57.0915C33.9585 56.9332 33.998 56.7785 34.0412 56.6202 33.998 56.7749 33.9585 56.9332 33.9261 57.0915Z" fill="#FFFFFF" transform="matrix(1.0089 0 0 1 349.682 244.834)"/><path d="M49.7918 21.7911C49.8134 21.8703 49.8314 21.9494 49.8494 22.0322 49.8278 21.953 49.8134 21.8739 49.7918 21.7911Z" fill="#FFFFFF" transform="matrix(1.0089 0 0 1 349.682 244.834)"/><path d="M34.5773 55.1991C34.5917 55.1704 34.6024 55.1416 34.6168 55.1128 34.6024 55.1416 34.5917 55.1704 34.5773 55.1991Z" fill="#FFFFFF" transform="matrix(1.0089 0 0 1 349.682 244.834)"/><path d="M49.1766 20.2549C49.2666 20.4276 49.3457 20.6075 49.4249 20.7874 49.3493 20.6075 49.2702 20.4312 49.1766 20.2549Z" fill="#FFFFFF" transform="matrix(1.0089 0 0 1 349.682 244.834)"/><path d="M34.8183 54.7458C34.8615 54.6739 34.9047 54.6019 34.9478 54.5264 34.9047 54.5983 34.8615 54.6703 34.8183 54.7458Z" fill="#FFFFFF" transform="matrix(1.0089 0 0 1 349.682 244.834)"/><path d="M33.7786 59.3976C33.7642 59.2249 33.757 59.0523 33.7534 58.8832 33.7534 59.0559 33.7642 59.2285 33.7786 59.3976Z" fill="#FFFFFF" transform="matrix(1.0089 0 0 1 349.682 244.834)"/><path d="M34.0124 60.8043C33.9944 60.7396 33.98 60.6748 33.9657 60.6101 33.98 60.6748 33.998 60.7396 34.0124 60.8043Z" fill="#FFFFFF" transform="matrix(1.0089 0 0 1 349.682 244.834)"/><path d="M34.2211 61.4879C34.2211 61.4879 34.2139 61.4663 34.2103 61.4555 34.2139 61.4663 34.2175 61.4771 34.2211 61.4879Z" fill="#FFFFFF" transform="matrix(1.0089 0 0 1 349.682 244.834)"/><path d="M33.8649 60.11C33.8433 59.9841 33.8254 59.8581 33.811 59.7322 33.8254 59.8581 33.8433 59.9841 33.8649 60.11Z" fill="#FFFFFF" transform="matrix(1.0089 0 0 1 349.682 244.834)"/><path d="M36.797 52.4073 30.8968 46.5072C33.2821 43.5463 33.3001 39.3298 30.9436 36.3473L36.8582 30.4327C36.9445 30.5011 37.0309 30.5587 37.1208 30.6198 36.7898 30.3752 36.4696 30.1161 36.171 29.8175 32.9799 26.6264 32.9799 21.4565 36.171 18.2654 39.3622 15.0743 44.532 15.0743 47.7232 18.2654 48.3096 18.8518 48.7881 19.5102 49.1586 20.2045 48.9248 19.7656 48.655 19.3375 48.3348 18.931 45.5286 15.3945 40.3875 14.8008 36.8474 17.607 33.3109 20.4132 32.7173 25.5543 35.5235 29.0944L29.6161 35.0018C29.8463 35.1889 30.073 35.3867 30.2888 35.599 33.4872 38.7973 33.4872 43.9816 30.2888 47.1799 30.055 47.4138 29.8103 47.6224 29.5585 47.8239L35.4803 53.7457C35.4083 53.8356 35.3436 53.9292 35.2788 54.0227 35.5378 53.6593 35.8221 53.3104 36.1459 52.9866 36.3581 52.7743 36.5776 52.58 36.8042 52.3966Z" fill="#FFFFFF" transform="matrix(1.0089 0 0 1 349.682 244.834)"/><path d="M49.5256 21.0104C49.576 21.1399 49.6156 21.2695 49.6623 21.399 49.6191 21.2695 49.576 21.1399 49.5256 21.0104Z" fill="#FFFFFF" transform="matrix(1.0089 0 0 1 349.682 244.834)"/><path d="M30.2852 35.6098C30.0694 35.3939 29.8463 35.1961 29.6125 35.0126 26.3962 32.4295 21.6868 32.6273 18.7007 35.6098 15.5024 38.8081 15.5024 43.9924 18.7007 47.1907 21.6652 50.1552 26.3386 50.3675 29.5513 47.8347 29.8031 47.6368 30.0514 47.4246 30.2816 47.1907 33.48 43.9924 33.48 38.8081 30.2816 35.6098Z" fill="#EE751B" transform="matrix(1.0089 0 0 1 349.682 244.834)"/><path d="M36.797 52.4073C36.5704 52.5908 36.3509 52.7851 36.1387 52.9974 35.8149 53.3212 35.5307 53.6737 35.2716 54.0335 35.1565 54.1954 35.0486 54.3573 34.9442 54.5264 34.9011 54.5983 34.8579 54.6703 34.8147 54.7458 34.7464 54.8682 34.678 54.9905 34.6132 55.1128 34.5989 55.1416 34.5881 55.1704 34.5737 55.1991 34.4621 55.4294 34.3614 55.6596 34.2715 55.8971 34.2247 56.0158 34.1851 56.1381 34.1455 56.2605 34.106 56.3792 34.07 56.5015 34.0376 56.6238 33.9944 56.7785 33.9549 56.9368 33.9225 57.0951 33.9045 57.1779 33.8901 57.2642 33.8757 57.347 33.8433 57.5304 33.8146 57.7175 33.7966 57.901 33.7894 57.9658 33.7822 58.0269 33.7786 58.0917 33.7642 58.2824 33.7534 58.4766 33.7498 58.6673 33.7498 58.7393 33.7498 58.8148 33.7498 58.8868 33.7498 59.0595 33.7606 59.2321 33.775 59.4012 33.7822 59.5128 33.7966 59.6243 33.8074 59.7358 33.8218 59.8617 33.8397 59.9877 33.8613 60.1136 33.8901 60.2827 33.9225 60.4482 33.9621 60.6136 33.9765 60.6784 33.9944 60.7432 34.0088 60.8079 34.0664 61.0274 34.1312 61.2432 34.2067 61.4591 34.2103 61.4699 34.2139 61.4807 34.2175 61.4915 34.6096 62.6068 35.2428 63.6573 36.1351 64.5495 39.3262 67.7406 44.4961 67.7406 47.6836 64.5495 50.8747 61.3584 50.8747 56.1885 47.6836 53.001 44.7047 50.0221 39.999 49.8278 36.7934 52.4109Z" fill="#17428D" transform="matrix(1.0089 0 0 1 349.682 244.834)"/><path d="M36.1674 18.2726C32.9763 21.4637 32.9763 26.6336 36.1674 29.8247 36.466 30.1233 36.7862 30.386 37.1172 30.627 40.312 32.9763 44.827 32.7137 47.716 29.8247 49.6623 27.8784 50.4142 25.1909 49.9861 22.669 49.9825 22.6438 49.9789 22.6186 49.9753 22.5934 49.9429 22.4027 49.8962 22.2157 49.8494 22.0322 49.8278 21.953 49.8134 21.8703 49.7918 21.7911 49.7523 21.658 49.7055 21.5285 49.6623 21.399 49.6191 21.2695 49.576 21.1399 49.5256 21.0104 49.4968 20.9349 49.4573 20.8629 49.4249 20.7874 49.3457 20.6075 49.2702 20.4312 49.1766 20.2549 49.1694 20.2405 49.1586 20.2261 49.1515 20.2117 48.7809 19.5138 48.3024 18.859 47.716 18.2726 44.5248 15.0815 39.355 15.0815 36.1638 18.2726Z" fill="#9B9A9A" transform="matrix(1.0089 0 0 1 349.682 244.834)"/><path d="M66.8808 42.5569 56.4511 42.5569C56.7246 44.6687 57.8578 45.525 59.6639 45.525 61.1929 45.525 62.0779 44.881 62.5384 43.7801L66.6973 45.158C65.8123 47.7879 62.873 49.1946 59.6639 49.1946 54.5875 49.1946 51.4072 46.2877 51.4072 41.2438 51.4072 36.1998 54.6811 33.2929 59.4192 33.2929 64.1574 33.2929 67.0031 36.3221 67.0031 40.5422 67.0031 41.3085 66.942 42.0712 66.8808 42.5605ZM56.4835 39.7723 62.0491 39.7723C61.8656 37.9375 61.0094 36.9265 59.4192 36.9265 57.829 36.9265 56.7893 37.8152 56.4835 39.7723Z" fill="#FFFFFF" transform="matrix(1.0089 0 0 1 349.682 244.834)"/><path d="M83.6999 38.7038 83.6999 48.8888 78.5013 48.8888 78.5013 40.0817C78.5013 37.9699 77.6163 37.2683 76.3283 37.2683 74.8281 37.2683 73.5761 38.2469 73.5761 40.7869L73.5761 48.8924 68.3774 48.8924 68.3774 33.6023 73.0256 33.6023 73.1767 36.6927C74.0941 34.4585 75.9613 33.2965 78.4078 33.2965 81.5593 33.2965 83.6999 35.1637 83.6999 38.711Z" fill="#FFFFFF" transform="matrix(1.0089 0 0 1 349.682 244.834)"/><path d="M85.8082 33.5951 90.4564 33.5951 90.6075 36.5632C91.586 34.4226 93.4209 33.2893 95.745 33.2893 98.0691 33.2893 99.7815 34.329 100.577 36.3185 101.523 34.329 103.512 33.2893 105.714 33.2893 108.711 33.2893 110.974 35.1241 110.945 38.7038L110.884 48.8888 105.746 48.8888 105.746 39.8982C105.746 37.9735 104.919 37.2683 103.667 37.2683 102.109 37.2683 100.976 38.4304 100.976 40.7257L100.976 48.8924 95.7773 48.8924 95.7773 39.9018C95.7773 37.9771 94.9211 37.2719 93.6979 37.2719 92.2588 37.2719 91.0068 38.3117 91.0068 40.8192L91.0068 48.8924 85.8082 48.8924 85.8082 33.6023Z" fill="#FFFFFF" transform="matrix(1.0089 0 0 1 349.682 244.834)"/><path d="M127.735 42.5569 117.306 42.5569C117.579 44.6687 118.713 45.525 120.519 45.525 122.048 45.525 122.933 44.881 123.393 43.7801L127.552 45.158C126.667 47.7879 123.728 49.1946 120.519 49.1946 115.442 49.1946 112.262 46.2877 112.262 41.2438 112.262 36.1998 115.536 33.2929 120.274 33.2929 125.012 33.2929 127.858 36.3221 127.858 40.5422 127.858 41.3085 127.797 42.0712 127.735 42.5605ZM117.338 39.7723 122.904 39.7723C122.72 37.9375 121.864 36.9265 120.274 36.9265 118.684 36.9265 117.644 37.8152 117.338 39.7723Z" fill="#FFFFFF" transform="matrix(1.0089 0 0 1 349.682 244.834)"/><path d="M128.131 46.2877 130.578 43.4132C131.585 44.7299 133.362 45.7085 135.442 45.7085 136.697 45.7085 137.615 45.3415 137.615 44.5752 137.615 44.0248 137.309 43.6866 136.086 43.4419L133.945 43.0138C130.092 42.2187 128.653 40.7509 128.653 38.2721 128.653 35.7933 130.916 33.2857 135.841 33.2857 138.96 33.2857 141.346 34.2355 142.752 35.9156L140.273 38.729C139.295 37.5058 137.582 36.7718 136.053 36.7718 134.524 36.7718 133.819 37.2 133.819 37.9051 133.819 38.4556 134.247 38.8225 135.625 39.0995L138.41 39.65C141.561 40.2292 142.846 41.7906 142.846 43.9312 142.846 46.8993 140.46 49.191 135.658 49.191 132.6 49.191 129.876 48.1801 128.135 46.2841Z" fill="#FFFFFF" transform="matrix(1.0089 0 0 1 349.682 244.834)"/><path d="M144.001 27.1121 149.199 27.1121 149.199 36.3797C150.117 34.329 151.829 33.2893 154.031 33.2893 157.182 33.2893 159.323 35.1565 159.323 38.7038L159.323 48.8888 154.124 48.8888 154.124 40.1429C154.124 37.9699 153.239 37.2359 151.951 37.2359 150.451 37.2359 149.199 38.2757 149.199 40.8444L149.199 48.8888 144.001 48.8888 144.001 27.1157Z" fill="#FFFFFF" transform="matrix(1.0089 0 0 1 349.682 244.834)"/><path d="M176.11 42.5569 165.68 42.5569C165.957 44.6687 167.087 45.525 168.893 45.525 170.422 45.525 171.311 44.881 171.767 43.7801L175.926 45.158C175.041 47.7879 172.102 49.1946 168.893 49.1946 163.817 49.1946 160.636 46.2877 160.636 41.2438 160.636 36.1998 163.91 33.2929 168.648 33.2929 173.386 33.2929 176.232 36.3221 176.232 40.5422 176.232 41.3085 176.171 42.0712 176.11 42.5605ZM165.713 39.7723 171.278 39.7723C171.095 37.9375 170.238 36.9265 168.648 36.9265 167.058 36.9265 166.018 37.8152 165.713 39.7723Z" fill="#FFFFFF" transform="matrix(1.0089 0 0 1 349.682 244.834)"/><path d="M193.051 27.1121 193.051 48.8852 188.403 48.8852 188.22 45.8884C187.363 47.939 185.557 49.191 183.233 49.191 179.441 49.191 176.934 46.2841 176.934 41.3013 176.934 36.3185 179.564 33.2893 183.356 33.2893 185.529 33.2893 187.058 34.4513 187.853 36.1962L187.853 27.1121 193.051 27.1121ZM187.853 41.1502C187.853 38.5815 186.813 37.1136 185.068 37.1136 183.323 37.1136 182.161 38.398 182.161 41.2438 182.161 44.0895 183.23 45.3739 185.036 45.3739 186.842 45.3739 187.849 43.906 187.849 41.1538Z" fill="#FFFFFF" transform="matrix(1.0089 0 0 1 349.682 244.834)"/></g></svg>